<svg width="667" height="101" viewBox="0 0 667 101" fill="none" xmlns="http://www.w3.org/2000/svg">
<g clip-path="url(#clip0_138_137)">
<g clip-path="url(#clip1_138_137)">
<path d="M36.75 0H11.25C5.0368 0 0 5.0368 0 11.25V36.75C0 42.9632 5.0368 48 11.25 48H36.75C42.9632 48 48 42.9632 48 36.75V11.25C48 5.0368 42.9632 0 36.75 0Z" fill="#E14E1D"/>
<path d="M9 7.125L10.6143 25.2362H31.3725L30.6759 33.0043L23.9923 34.8114L17.3212 33.0069L16.8752 28.0191H10.8635L11.7232 37.6343L23.9908 41.0415L36.2739 37.6343L37.9208 19.2478H16.092L15.5439 13.1147H38.4452H38.4636L39 7.125H9Z" fill="white"/>
<path d="M24 7.125H9L10.6143 25.2362H24V19.2478H16.092L15.5439 13.1146H24V7.125Z" fill="#EBEBEB"/>
<path d="M24 34.8088L23.9923 34.8114L17.3212 33.0069L16.8752 28.0191H10.8635L11.7232 37.6343L23.9908 41.0415L24 41.0389V34.8088Z" fill="#EBEBEB"/>
</g>
<g clip-path="url(#clip2_138_137)">
<path d="M93 0H67.5C61.2868 0 56.25 5.0368 56.25 11.25V36.75C56.25 42.9632 61.2868 48 67.5 48H93C99.2132 48 104.25 42.9632 104.25 36.75V11.25C104.25 5.0368 99.2132 0 93 0Z" fill="#0277BD"/>
<path d="M66.3286 19.2471L66.8654 25.2362H80.268V19.2471H66.3286Z" fill="#EBEBEB"/>
<path d="M80.2678 7.125H80.2472H65.25L65.7944 13.1142H80.2678V7.125Z" fill="#EBEBEB"/>
<path d="M80.2679 41.0327V34.8015L80.2417 34.8084L73.5716 33.0075L73.1452 28.2307H69.904H67.1331L67.9721 37.6346L80.2403 41.0404L80.2679 41.0327Z" fill="#EBEBEB"/>
<path d="M87.622 25.2362L86.9268 33.0036L80.2471 34.8066V41.0374L92.5251 37.6346L92.6151 36.6227L94.0225 20.8554L94.1686 19.2471L95.2499 7.125H80.2471V13.1142H88.6863L88.1414 19.2471H80.2471V25.2362H87.622Z" fill="white"/>
</g>
<g clip-path="url(#clip3_138_137)">
<path d="M149.25 0H123.75C117.537 0 112.5 5.0368 112.5 11.25V36.75C112.5 42.9632 117.537 48 123.75 48H149.25C155.463 48 160.5 42.9632 160.5 36.75V11.25C160.5 5.0368 155.463 0 149.25 0Z" fill="#F0DB4F"/>
<path d="M125.121 40.1122L128.794 37.8892C129.503 39.1457 130.148 40.2088 131.694 40.2088C133.176 40.2088 134.11 39.6291 134.11 37.3738V22.0367H138.621V37.4376C138.621 42.1095 135.883 44.2361 131.887 44.2361C128.279 44.2361 126.184 42.3673 125.121 40.1119" fill="#323330"/>
<path d="M141.072 39.6289L144.744 37.5024C145.711 39.0814 146.968 40.2412 149.191 40.2412C151.06 40.2412 152.252 39.3067 152.252 38.0179C152.252 36.4714 151.027 35.9235 148.965 35.0216L147.838 34.5381C144.583 33.1528 142.425 31.4128 142.425 27.7397C142.425 24.3564 145.002 21.7787 149.03 21.7787C151.898 21.7787 153.96 22.7777 155.442 25.3875L151.93 27.6429C151.156 26.2575 150.319 25.7098 149.03 25.7098C147.709 25.7098 146.871 26.5476 146.871 27.6429C146.871 28.9961 147.709 29.544 149.642 30.3819L150.77 30.8651C154.604 32.5086 156.763 34.1837 156.763 37.9534C156.763 42.0135 153.573 44.2365 149.288 44.2365C145.099 44.2365 142.392 42.2389 141.072 39.6289Z" fill="#323330"/>
</g>
<g clip-path="url(#clip4_138_137)">
<path d="M205.5 0H180C173.787 0 168.75 5.0368 168.75 11.25V36.75C168.75 42.9632 173.787 48 180 48H205.5C211.713 48 216.75 42.9632 216.75 36.75V11.25C216.75 5.0368 211.713 0 205.5 0Z" fill="#FF3E00"/>
<mask id="mask0_138_137" style="mask-type:luminance" maskUnits="userSpaceOnUse" x="178" y="7" width="29" height="34">
<path d="M206.746 7.125H178.688V40.875H206.746V7.125Z" fill="white"/>
</mask>
<g mask="url(#mask0_138_137)">
<path d="M204.944 11.5869C201.826 7.0964 195.62 5.78073 191.158 8.6123L183.292 13.6462C181.147 14.9905 179.66 17.1928 179.231 19.6811C178.859 21.7691 179.174 23.9141 180.175 25.7734C179.488 26.8029 179.031 27.9471 178.831 29.1484C178.373 31.6939 178.974 34.3253 180.461 36.4131C183.607 40.9037 189.785 42.2192 194.247 39.3878L202.112 34.3825C204.258 33.0381 205.745 30.8359 206.174 28.3474C206.546 26.2596 206.231 24.1144 205.23 22.2553C205.916 21.2256 206.374 20.0816 206.574 18.8803C207.06 16.3062 206.46 13.6748 204.944 11.5869Z" fill="white"/>
<path d="M190.386 36.8421C187.84 37.5 185.18 36.4989 183.693 34.3538C182.778 33.0953 182.434 31.5223 182.692 29.9777C182.749 29.7203 182.806 29.4915 182.864 29.2341L183.007 28.7766L183.407 29.0625C184.351 29.7489 185.38 30.2638 186.496 30.6069L186.782 30.6928L186.753 30.9788C186.725 31.3793 186.839 31.8083 187.068 32.1516C187.526 32.8093 188.326 33.1239 189.099 32.9237C189.27 32.8665 189.442 32.8093 189.585 32.7234L197.422 27.7181C197.822 27.4609 198.08 27.0891 198.165 26.6314C198.251 26.1737 198.137 25.6875 197.879 25.3157C197.422 24.6578 196.621 24.3718 195.849 24.5721C195.677 24.6293 195.505 24.6864 195.362 24.7723L192.359 26.6886C191.873 27.0032 191.33 27.2319 190.758 27.375C188.212 28.0328 185.552 27.0317 184.065 24.8867C183.178 23.6282 182.806 22.0551 183.092 20.5106C183.35 19.0234 184.265 17.679 185.552 16.8782L193.417 11.8729C193.904 11.5583 194.447 11.3295 195.019 11.1578C197.565 10.5 200.225 11.5011 201.712 13.6462C202.627 14.9047 202.97 16.4778 202.713 18.0222C202.656 18.2797 202.599 18.5085 202.513 18.7659L202.37 19.2234L201.969 18.9375C201.026 18.2511 199.996 17.7362 198.88 17.393L198.594 17.3072L198.623 17.0212C198.652 16.6208 198.537 16.1917 198.308 15.8485C197.851 15.1907 197.05 14.9047 196.278 15.1049C196.106 15.1621 195.934 15.2193 195.791 15.3051L187.955 20.3104C187.554 20.5678 187.297 20.9396 187.211 21.3973C187.125 21.8548 187.24 22.3412 187.497 22.713C187.955 23.3708 188.755 23.6567 189.528 23.4566C189.699 23.3994 189.871 23.3421 190.014 23.2564L193.017 21.3401C193.503 21.0255 194.047 20.7966 194.619 20.625C197.164 19.9671 199.824 20.9681 201.312 23.1133C202.227 24.3718 202.57 25.9449 202.313 27.4894C202.055 28.9766 201.14 30.321 199.853 31.1218L191.987 36.1271C191.501 36.4418 190.958 36.6705 190.386 36.8421Z" fill="#FF3E00"/>
</g>
</g>
<g clip-path="url(#clip5_138_137)">
<path d="M261.75 0H236.25C230.037 0 225 5.0368 225 11.25V36.75C225 42.9632 230.037 48 236.25 48H261.75C267.963 48 273 42.9632 273 36.75V11.25C273 5.0368 267.963 0 261.75 0Z" fill="#007ACC"/>
<path d="M235.615 24.1592L235.599 26.1249H238.723H241.847V35.0012V43.8773H244.057H246.266V35.0012V26.1249H249.39H252.514V24.1973C252.514 23.1306 252.491 22.2392 252.46 22.2163C252.437 22.1859 248.636 22.1706 244.026 22.1783L235.637 22.2011L235.615 24.1592Z" fill="white"/>
<path d="M263.731 22.1452C264.95 22.4501 265.88 22.9911 266.733 23.8747C267.175 24.3472 267.83 25.2082 267.884 25.4139C267.899 25.4749 265.811 26.8768 264.546 27.6615C264.501 27.6921 264.318 27.4939 264.112 27.1892C263.495 26.2901 262.847 25.9014 261.857 25.833C260.402 25.7338 259.464 26.4958 259.472 27.7682C259.472 28.1415 259.525 28.3624 259.678 28.6672C259.998 29.3301 260.592 29.7262 262.459 30.5338C265.895 32.0121 267.365 32.9872 268.28 34.3738C269.301 35.9205 269.529 38.3891 268.836 40.2253C268.074 42.2214 266.184 43.5776 263.525 44.0272C262.703 44.172 260.752 44.1491 259.868 43.9892C257.941 43.6462 256.112 42.6939 254.985 41.4444C254.543 40.9567 253.682 39.6844 253.735 39.5929C253.758 39.5625 253.956 39.4406 254.177 39.311C254.39 39.1892 255.198 38.7244 255.96 38.2824L257.339 37.4824L257.628 37.9091C258.032 38.5262 258.916 39.372 259.449 39.6538C260.981 40.4615 263.084 40.3472 264.12 39.4177C264.562 39.0139 264.744 38.5948 264.744 37.9777C264.744 37.4214 264.676 37.1777 264.386 36.7586C264.013 36.2254 263.251 35.7757 261.087 34.8386C258.611 33.7719 257.544 33.1091 256.569 32.0576C256.005 31.4482 255.472 30.4729 255.251 29.6576C255.068 28.9796 255.023 27.2805 255.167 26.5948C255.678 24.2025 257.484 22.5339 260.089 22.0386C260.935 21.8786 262.901 21.9396 263.731 22.1452Z" fill="white"/>
</g>
<g clip-path="url(#clip6_138_137)">
<path d="M318 0H292.5C286.287 0 281.25 5.0368 281.25 11.25V36.75C281.25 42.9632 286.287 48 292.5 48H318C324.213 48 329.25 42.9632 329.25 36.75V11.25C329.25 5.0368 324.213 0 318 0Z" fill="#242938"/>
<path d="M305.25 27.5533C307.182 27.5533 308.748 25.9871 308.748 24.0553C308.748 22.1235 307.182 20.5573 305.25 20.5573C303.318 20.5573 301.752 22.1235 301.752 24.0553C301.752 25.9871 303.318 27.5533 305.25 27.5533Z" fill="#00D8FF"/>
<path fill-rule="evenodd" clip-rule="evenodd" d="M305.25 16.9431C309.947 16.9431 314.31 17.617 317.599 18.7495C321.563 20.1141 324 22.1824 324 24.0553C324 26.007 321.417 28.2043 317.161 29.6145C313.943 30.6806 309.709 31.2371 305.25 31.2371C300.679 31.2371 296.351 30.7147 293.097 29.6027C288.98 28.1955 286.5 25.9699 286.5 24.0553C286.5 22.1976 288.827 20.1452 292.735 18.7828C296.037 17.6316 300.507 16.9431 305.25 16.9431H305.25Z" stroke="#00D8FF" stroke-width="1.67081"/>
<path fill-rule="evenodd" clip-rule="evenodd" d="M299.059 20.5196C301.405 16.4513 304.169 13.0084 306.793 10.7245C309.955 7.97261 312.965 6.8949 314.587 7.83043C316.278 8.80543 316.891 12.1406 315.986 16.5321C315.303 19.8523 313.669 23.7984 311.442 27.6606C309.158 31.6202 306.543 35.1088 303.954 37.3716C300.679 40.2351 297.512 41.2714 295.853 40.3149C294.244 39.3876 293.629 36.3461 294.401 32.2802C295.053 28.8446 296.69 24.6279 299.058 20.5196H299.059Z" stroke="#00D8FF" stroke-width="1.67081"/>
<path fill-rule="evenodd" clip-rule="evenodd" d="M299.065 27.6709C296.712 23.607 295.11 19.4929 294.441 16.0784C293.636 11.9645 294.205 8.81916 295.826 7.88091C297.515 6.90306 300.711 8.03738 304.064 11.0144C306.599 13.2652 309.202 16.651 311.436 20.5093C313.726 24.4652 315.442 28.473 316.11 31.8458C316.955 36.114 316.271 39.3752 314.614 40.3343C313.006 41.265 310.064 40.2797 306.927 37.5801C304.277 35.2993 301.441 31.7753 299.065 27.6709Z" stroke="#00D8FF" stroke-width="1.67081"/>
</g>
<g clip-path="url(#clip7_138_137)">
<path d="M374.25 0H348.75C342.537 0 337.5 5.0368 337.5 11.25V36.75C337.5 42.9632 342.537 48 348.75 48H374.25C380.463 48 385.5 42.9632 385.5 36.75V11.25C385.5 5.0368 380.463 0 374.25 0Z" fill="#242938"/>
<mask id="mask1_138_137" style="mask-type:luminance" maskUnits="userSpaceOnUse" x="348" y="5" width="26" height="38">
<path d="M373.943 5.25H348.938V42.75H373.943V5.25Z" fill="white"/>
</mask>
<g mask="url(#mask1_138_137)">
<path d="M355.19 42.75C358.64 42.75 361.44 39.9501 361.44 36.5001V30.2499H355.19C351.74 30.2499 348.94 33.0501 348.94 36.5001C348.94 39.9501 351.74 42.75 355.19 42.75Z" fill="#0ACF83"/>
<path d="M348.94 24C348.94 20.55 351.74 17.75 355.19 17.75H361.44V30.2499H355.19C351.74 30.2499 348.94 27.45 348.94 24Z" fill="#A259FF"/>
<path d="M348.94 11.5C348.94 8.04999 351.74 5.25 355.19 5.25H361.44V17.75H355.19C351.74 17.75 348.94 14.95 348.94 11.5Z" fill="#F24E1E"/>
<path d="M361.44 5.25H367.69C371.14 5.25 373.94 8.04999 373.94 11.5C373.94 14.95 371.14 17.75 367.69 17.75H361.44V5.25Z" fill="#FF7262"/>
<path d="M373.94 24C373.94 27.45 371.14 30.2499 367.69 30.2499C364.24 30.2499 361.44 27.45 361.44 24C361.44 20.55 364.24 17.75 367.69 17.75C371.14 17.75 373.94 20.55 373.94 24Z" fill="#1ABCFE"/>
</g>
</g>
<g clip-path="url(#clip8_138_137)">
<path d="M430.5 0H405C398.787 0 393.75 5.0368 393.75 11.25V36.75C393.75 42.9632 398.787 48 405 48H430.5C436.713 48 441.75 42.9632 441.75 36.75V11.25C441.75 5.0368 436.713 0 430.5 0Z" fill="#00979C"/>
<path fill-rule="evenodd" clip-rule="evenodd" d="M397.312 25.596V22.5178C397.377 22.4858 397.377 22.4216 397.377 22.3575C398.345 18.157 400.991 15.6239 405.186 14.6299C405.541 14.5337 405.929 14.5658 406.284 14.4375H408.349C408.381 14.5016 408.478 14.4696 408.542 14.4696C410.608 14.694 412.479 15.4315 414.125 16.7141C415.545 17.7723 416.642 19.119 417.643 20.5618C417.772 20.7542 417.836 20.7542 417.965 20.5618C418.546 19.7282 419.159 18.9266 419.869 18.1891C421.58 16.3614 423.645 15.0788 426.162 14.6299C426.517 14.5337 426.936 14.5658 427.291 14.4375H429.292C429.324 14.5016 429.389 14.4696 429.453 14.4696C430.066 14.5337 430.647 14.662 431.228 14.8223C435.552 16.0728 438.618 20.0167 438.36 24.4738C438.166 28.2255 436.262 30.9189 432.938 32.6183C431.293 33.5162 429.486 33.7406 427.614 33.7086C425.162 33.6765 423.032 32.8427 421.192 31.2396C419.901 30.1172 418.901 28.7706 417.965 27.3596C417.836 27.1672 417.772 27.1993 417.643 27.3917C417.062 28.2576 416.449 29.1233 415.739 29.9569C414.48 31.3678 413.028 32.5221 411.221 33.1314C408.994 33.9009 406.735 33.933 404.476 33.3238C401.217 32.3938 398.991 30.3416 397.764 27.1993C397.571 26.6863 397.474 26.1092 397.312 25.596ZM407.574 30.3096C409.414 30.3737 410.995 29.7645 412.35 28.5141C413.738 27.2314 414.738 25.6281 415.739 24.057C415.771 23.9608 415.771 23.8967 415.706 23.8005C414.867 22.4857 413.996 21.1712 412.834 20.0809C410.608 17.9647 407.994 17.2592 405.057 18.1891C402.637 18.9907 401.088 20.6901 400.733 23.2552C400.378 25.6601 401.314 27.5841 403.25 29.0271C404.541 29.9569 405.993 30.3416 407.574 30.3096ZM428.033 30.3096C428.743 30.3096 429.453 30.2775 430.131 30.0851C432.68 29.3156 434.358 27.7444 434.843 25.1151C435.326 22.5178 434.326 20.4336 432.132 18.9587C429.712 17.2913 426.194 17.4516 423.742 19.2793C422.096 20.4977 420.999 22.1331 419.901 23.8326C419.837 23.9288 419.869 23.9929 419.901 24.0891C420.773 25.4678 421.644 26.8466 422.774 28.0329C424.193 29.5401 425.904 30.4058 428.033 30.3096Z" fill="white"/>
<path fill-rule="evenodd" clip-rule="evenodd" d="M407.542 23.0308C408.575 23.0308 409.64 23.0629 410.672 23.0308C410.93 23.0308 410.963 23.0949 410.963 23.3514C410.93 23.6402 410.93 23.9288 410.963 24.2173C410.995 24.4738 410.93 24.538 410.64 24.538H406.509C405.799 24.538 405.089 24.5059 404.38 24.538C404.154 24.538 404.089 24.4738 404.089 24.2173C404.121 23.9288 404.121 23.6402 404.089 23.3194C404.089 23.095 404.154 23.0308 404.38 23.0308C405.412 23.0629 406.477 23.0308 407.542 23.0308ZM427.872 20.9786C428.13 20.9786 428.388 21.0107 428.614 20.9786C428.776 20.9786 428.84 21.0428 428.84 21.2031C428.808 21.6521 428.84 22.101 428.808 22.5499C428.808 22.7743 428.872 22.8384 429.098 22.8384C429.518 22.8064 429.97 22.8385 430.421 22.8064C430.615 22.8064 430.68 22.8384 430.68 23.0629V24.538C430.68 24.6983 430.615 24.7624 430.454 24.7624C430.002 24.7303 429.55 24.7624 429.066 24.7303C428.872 24.7303 428.808 24.7944 428.808 24.9868C428.84 25.4357 428.808 25.8846 428.84 26.3336C428.84 26.526 428.776 26.6222 428.582 26.6222C428.098 26.5901 427.614 26.5901 427.13 26.6222C426.936 26.6222 426.872 26.5581 426.872 26.3657C426.904 25.8846 426.872 25.4357 426.904 24.9548C426.904 24.7944 426.839 24.7303 426.678 24.7303C426.226 24.7624 425.775 24.7303 425.323 24.7624C425.064 24.7624 425.032 24.6662 425.032 24.4738C425.032 24.0249 425.064 23.5759 425.032 23.127C425 22.8705 425.129 22.8064 425.355 22.8064C425.807 22.8385 426.226 22.8064 426.678 22.8384C426.839 22.8384 426.904 22.7743 426.904 22.614C426.872 22.1651 426.904 21.6842 426.872 21.2353C426.872 21.0428 426.936 20.9786 427.13 20.9786C427.388 21.0107 427.614 20.9786 427.872 20.9786Z" fill="white"/>
</g>
<g clip-path="url(#clip9_138_137)">
<path d="M486.75 0H461.25C455.037 0 450 5.0368 450 11.25V36.75C450 42.9632 455.037 48 461.25 48H486.75C492.963 48 498 42.9632 498 36.75V11.25C498 5.0368 492.963 0 486.75 0Z" fill="#242938"/>
<path fill-rule="evenodd" clip-rule="evenodd" d="M488.216 12.9066L476.377 5.8791C474.964 5.0403 473.223 5.0403 471.81 5.8791L459.971 12.9066C458.558 13.7455 457.688 15.2953 457.688 16.9729V31.0281C457.688 32.7052 458.558 34.2559 459.971 35.0947L471.81 42.1209C472.516 42.5406 473.304 42.7498 474.094 42.7498C474.882 42.7498 475.67 42.5406 476.377 42.1209L488.216 35.0947C489.629 34.2559 490.5 32.7052 490.5 31.0281V16.9729C490.5 15.2953 489.629 13.7455 488.216 12.9066Z" fill="#242938"/>
<path fill-rule="evenodd" clip-rule="evenodd" d="M472.224 41.4015L460.385 34.3751C459.227 33.6877 458.508 32.4052 458.508 31.0279V16.9731C458.508 15.5956 459.227 14.3133 460.385 13.6262L472.224 6.59865C472.791 6.26171 473.438 6.08353 474.094 6.08353C474.749 6.08353 475.395 6.26171 475.963 6.59865L487.802 13.6262C488.778 14.2054 489.436 15.2083 489.621 16.3332C489.229 15.4952 488.343 15.2674 487.311 15.8702L476.111 22.7882C474.715 23.6046 473.685 24.5207 473.684 26.2046V40.0054C473.683 41.0137 474.09 41.6668 474.716 41.8562C474.51 41.8918 474.303 41.9166 474.094 41.9166C473.438 41.9166 472.791 41.7384 472.224 41.4015ZM488.216 12.9064L476.377 5.8793C475.671 5.4597 474.882 5.25009 474.094 5.25009C473.305 5.25009 472.516 5.4597 471.81 5.8793L459.971 12.9064C458.558 13.7452 457.688 15.2955 457.688 16.9731V31.0279C457.688 32.7051 458.558 34.2557 459.971 35.0946L471.81 42.1211C472.517 42.5404 473.305 42.75 474.094 42.75C474.882 42.75 475.67 42.5404 476.377 42.1211L488.216 35.0946C489.629 34.2557 490.5 32.7051 490.5 31.0279V16.9731C490.5 15.2955 489.629 13.7452 488.216 12.9064Z" fill="white"/>
<path fill-rule="evenodd" clip-rule="evenodd" d="M485.113 32.3867L482.165 34.1511C482.087 34.1966 482.029 34.2478 482.029 34.3418V35.1131C482.029 35.2075 482.092 35.2466 482.17 35.2007L485.164 33.3814C485.242 33.3358 485.254 33.2486 485.254 33.1547V32.4743C485.254 32.3805 485.191 32.3411 485.113 32.3867Z" fill="#47B353"/>
<path fill-rule="evenodd" clip-rule="evenodd" d="M478.835 25.8934C478.931 25.845 479.009 25.9044 479.01 26.0293L479.02 27.0491C479.447 26.8793 479.818 26.8339 480.154 26.9115C480.227 26.931 480.259 27.0302 480.23 27.1479L480.005 28.0517C479.988 28.1199 479.949 28.1889 479.903 28.2319C479.883 28.251 479.864 28.2658 479.844 28.2758C479.814 28.2911 479.784 28.296 479.755 28.2902C479.602 28.2555 479.237 28.1758 478.664 28.4664C478.062 28.7711 477.851 29.2941 477.855 29.6822C477.86 30.1457 478.098 30.2861 478.919 30.3002C480.013 30.3184 480.486 30.7963 480.497 31.8981C480.508 32.9799 479.931 34.1417 479.047 34.8536L479.067 35.8631C479.068 35.9846 478.989 36.1239 478.893 36.1723L478.296 36.5168C478.2 36.5651 478.121 36.5055 478.12 36.384L478.11 35.391C477.597 35.6038 477.078 35.6552 476.747 35.5221C476.685 35.4977 476.658 35.4054 476.682 35.3004L476.899 34.3877C476.916 34.3157 476.955 34.2437 477.006 34.1979C477.024 34.1801 477.043 34.1664 477.062 34.1569C477.097 34.1396 477.13 34.1359 477.159 34.1466C477.516 34.2669 477.973 34.2107 478.412 33.9883C478.97 33.7059 479.344 33.1367 479.338 32.5712C479.332 32.058 479.055 31.8448 478.379 31.8398C477.519 31.8422 476.718 31.6727 476.704 30.4069C476.694 29.3648 477.236 28.2803 478.093 27.5946L478.083 26.5755C478.081 26.4503 478.158 26.3124 478.256 26.2629L478.835 25.8934Z" fill="#242938"/>
</g>
<g clip-path="url(#clip10_138_137)">
<path d="M543 0H517.5C511.287 0 506.25 5.0368 506.25 11.25V36.75C506.25 42.9632 511.287 48 517.5 48H543C549.213 48 554.25 42.9632 554.25 36.75V11.25C554.25 5.0368 549.213 0 543 0Z" fill="#242938"/>
<path d="M523.234 5.4381C523.039 5.44391 522.83 5.51291 522.591 5.69291C522.008 5.47747 521.442 5.40266 520.937 5.84122C520.156 5.74428 519.902 5.94453 519.71 6.17872C519.538 6.17516 518.427 6.0096 517.917 6.73822C516.636 6.5931 516.231 7.46028 516.69 8.26841C516.428 8.65691 516.157 9.03978 516.769 9.77985C516.553 10.1918 516.687 10.6386 517.197 11.1799C517.062 11.7587 517.326 12.1675 517.801 12.486C517.712 13.2784 518.559 13.7397 518.812 13.9035C518.909 14.3652 519.112 14.8013 520.08 15.0418C520.239 15.7307 520.821 15.8494 521.384 15.9936C519.523 17.0308 517.926 18.3945 517.937 21.7416L517.664 22.2079C515.53 23.4517 513.609 27.4491 516.612 30.6984C516.809 31.7156 517.137 32.4459 517.43 33.2546C517.869 36.5128 520.728 38.0383 521.482 38.2189C522.587 39.0251 523.764 39.7901 525.357 40.3264C526.858 41.8102 528.485 42.3756 530.12 42.375H530.192C531.828 42.3757 533.455 41.8102 534.956 40.3264C536.549 39.7905 537.725 39.0251 538.831 38.2189C539.585 38.0383 542.444 36.5128 542.882 33.2542C543.175 32.4459 543.504 31.7156 543.7 30.6984C546.703 27.4491 544.783 23.4512 542.648 22.2071L542.375 21.7414C542.386 18.3945 540.79 17.0301 538.928 15.9934C539.491 15.849 540.073 15.7298 540.233 15.0417C541.2 14.8007 541.403 14.365 541.5 13.9032C541.753 13.7387 542.601 13.2782 542.512 12.4851C542.986 12.1671 543.25 11.7582 543.116 11.179C543.626 10.6382 543.76 10.1912 543.543 9.7791C544.155 9.03978 543.884 8.65635 543.623 8.26822C544.081 7.45953 543.677 6.59272 542.395 6.73785C541.886 6.0096 540.774 6.17516 540.603 6.17835C540.41 5.94435 540.156 5.7441 539.375 5.84103C538.87 5.40266 538.304 5.47747 537.721 5.69291C537.028 5.16922 536.57 5.58903 536.046 5.74785C535.208 5.48497 535.016 5.84478 534.604 5.99141C533.689 5.80616 533.411 6.20928 532.973 6.63491L532.463 6.62535C531.083 7.40385 530.398 8.99028 530.156 9.80572C529.912 8.98991 529.229 7.40366 527.849 6.62535L527.339 6.63453C526.9 6.20891 526.622 5.80616 525.708 5.99141C525.296 5.84478 525.104 5.48516 524.265 5.74785C523.922 5.6436 523.606 5.42685 523.234 5.43791L523.234 5.4381Z" fill="#050606"/>
<path d="M520.515 8.86521C524.175 10.6725 526.302 12.1354 527.468 13.3811C526.871 15.6733 523.758 15.7778 522.619 15.7135C522.852 15.6096 523.047 15.4849 523.116 15.2938C522.83 15.0994 521.817 15.2734 521.109 14.8924C521.381 14.8384 521.508 14.7859 521.635 14.5941C520.967 14.3897 520.247 14.2136 519.824 13.8752C520.053 13.8784 520.266 13.9245 520.564 13.726C519.966 13.417 519.327 13.1723 518.831 12.6998C519.14 12.6926 519.474 12.6966 519.571 12.5878C519.023 12.2629 518.561 11.901 518.178 11.5058C518.612 11.5556 518.794 11.5127 518.899 11.44C518.485 11.0338 517.961 10.6907 517.711 10.1901C518.032 10.2962 518.327 10.3369 518.539 10.1805C518.398 9.8764 517.795 9.69696 517.448 8.98652C517.786 9.01765 518.145 9.05721 518.217 8.98652C518.06 8.37302 517.791 8.02802 517.526 7.67121C518.25 7.66071 519.348 7.67346 519.298 7.61458L518.85 7.17658C519.558 6.99377 520.282 7.20602 520.808 7.36296C521.044 7.18465 520.804 6.95927 520.516 6.72827C521.117 6.80534 521.661 6.93809 522.151 7.12052C522.414 6.89346 521.981 6.66658 521.772 6.43915C522.701 6.60827 523.095 6.84546 523.486 7.0834C523.77 6.8224 523.502 6.60115 523.311 6.37427C524.011 6.62271 524.372 6.9439 524.752 7.26058C524.881 7.09371 525.079 6.97165 524.84 6.57002C525.337 6.84471 525.711 7.16852 525.988 7.53096C526.296 7.34308 526.172 7.08621 526.174 6.84977C526.691 7.25271 527.018 7.68115 527.42 8.10021C527.501 8.04396 527.571 7.85233 527.634 7.54971C528.867 8.6959 530.61 11.5834 528.082 12.7281C525.931 11.0284 523.362 9.7924 520.515 8.86521H520.515H520.515ZM539.9 8.86521C536.24 10.6729 534.112 12.135 532.947 13.3811C533.544 15.6733 536.658 15.7778 537.796 15.7135C537.563 15.6096 537.369 15.4849 537.3 15.2938C537.586 15.0994 538.599 15.2734 539.306 14.8924C539.034 14.8384 538.907 14.7859 538.78 14.5941C539.448 14.3897 540.168 14.2136 540.591 13.8752C540.363 13.8784 540.149 13.9245 539.851 13.726C540.45 13.417 541.088 13.1723 541.585 12.6998C541.275 12.6926 540.942 12.6966 540.845 12.5878C541.393 12.2629 541.855 11.901 542.237 11.5058C541.804 11.5556 541.621 11.5127 541.516 11.44C541.931 11.0338 542.455 10.6907 542.705 10.1901C542.383 10.2962 542.089 10.3369 541.877 10.1805C542.018 9.8764 542.62 9.69696 542.968 8.98652C542.629 9.01765 542.27 9.05721 542.198 8.98652C542.356 8.37302 542.625 8.02783 542.889 7.67083C542.165 7.66052 541.067 7.67308 541.117 7.61458L541.565 7.17658C540.857 6.99358 540.133 7.20565 539.608 7.36259C539.372 7.18427 539.612 6.9589 539.9 6.72808C539.299 6.80515 538.755 6.9379 538.264 7.12034C538.001 6.89309 538.434 6.6664 538.644 6.43896C537.715 6.60808 537.321 6.84527 536.93 7.08265C536.646 6.82221 536.914 6.60077 537.105 6.37408C536.404 6.62252 536.044 6.94371 535.664 7.25984C535.535 7.09334 535.337 6.97127 535.576 6.56927C535.079 6.84433 534.704 7.16777 534.427 7.53059C534.119 7.34271 534.244 7.08584 534.242 6.84959C533.725 7.25234 533.397 7.68115 532.995 8.10002C532.915 8.04377 532.844 7.85215 532.781 7.54933C531.548 8.69552 529.806 11.583 532.333 12.7279C534.484 11.0273 537.052 9.79184 539.9 8.86502L539.9 8.86521Z" fill="#63C54D"/>
<path d="M534.634 32.2076C534.646 34.3466 532.694 36.09 530.273 36.1014C527.852 36.1127 525.879 34.3879 525.866 32.2485V32.2076C525.853 30.0684 527.805 28.3251 530.226 28.3138C532.648 28.3026 534.621 30.0274 534.634 32.1666V32.2073V32.2076ZM527.798 21.1431C529.615 22.2833 529.942 24.8679 528.53 26.916C527.117 28.9641 524.5 29.7002 522.683 28.5598C520.867 27.4196 520.539 24.8346 521.952 22.7869C523.364 20.7384 525.982 20.0027 527.798 21.1431ZM532.701 20.9364C530.885 22.077 530.557 24.6613 531.97 26.7098C533.382 28.7574 536 29.4939 537.816 28.3532C539.633 27.213 539.96 24.6283 538.547 22.5803C537.135 20.5326 534.518 19.7963 532.701 20.9368V20.9364ZM518.832 23.0192C520.793 22.5152 519.494 30.7929 517.899 30.114C516.143 28.7612 515.578 24.7997 518.832 23.0192H518.832ZM541.496 22.9161C539.534 22.4126 540.833 30.6904 542.429 30.0113C544.185 28.6583 544.75 24.6966 541.496 22.9161ZM534.918 16.7402C538.303 16.1925 541.119 18.1189 541.005 21.6354C540.894 22.9834 533.671 16.9407 534.918 16.7399V16.7402ZM525.567 16.6369C522.182 16.0892 519.366 18.0162 519.48 21.5323C519.591 22.8803 526.814 16.8374 525.567 16.6369ZM530.23 15.8168C528.21 15.7665 526.271 17.2536 526.266 18.1154C526.261 19.1634 527.864 20.2361 530.244 20.2635C532.674 20.28 534.225 19.4048 534.233 18.3235C534.242 17.0984 532.022 15.798 530.23 15.8168ZM530.386 37.3044C532.147 37.2306 534.51 37.8478 534.515 38.6664C534.544 39.4614 532.372 41.2577 530.269 41.2232C528.092 41.3134 525.956 39.5141 525.984 38.8907C525.952 37.9763 528.636 37.2626 530.386 37.3044ZM523.868 32.4521C525.122 33.8996 525.693 36.4425 524.647 37.1919C523.657 37.7644 521.253 37.5287 519.544 35.1765C518.392 33.2033 518.541 31.1948 519.35 30.6045C520.56 29.8984 522.429 30.8524 523.868 32.4521H523.868ZM536.492 31.9931C535.136 33.516 534.38 36.2927 535.37 37.1871C536.316 37.8821 538.856 37.7848 540.733 35.2901C542.095 33.6146 541.639 30.8169 540.86 30.0739C539.704 29.2168 538.045 30.3135 536.492 31.9926L536.492 31.9931Z" fill="#C51850"/>
</g>
<g clip-path="url(#clip11_138_137)">
<mask id="mask2_138_137" style="mask-type:luminance" maskUnits="userSpaceOnUse" x="562" y="0" width="49" height="48">
<path d="M599.25 0H573.75C567.537 0 562.5 5.0368 562.5 11.25V36.75C562.5 42.9632 567.537 48 573.75 48H599.25C605.463 48 610.5 42.9632 610.5 36.75V11.25C610.5 5.0368 605.463 0 599.25 0Z" fill="white"/>
</mask>
<g mask="url(#mask2_138_137)">
<path d="M610.5 0H562.5V18.9975L579.486 23.544L581.628 15.5551L610.5 23.2927V0Z" fill="#009FFF"/>
<path d="M610.5 29.0025L593.514 24.4498L591.372 32.4385L562.5 24.7011V48H610.5V29.0025Z" fill="#009FFF"/>
</g>
</g>
<g clip-path="url(#clip12_138_137)">
<path d="M655.5 0H630C623.787 0 618.75 5.0368 618.75 11.25V36.75C618.75 42.9632 623.787 48 630 48H655.5C661.713 48 666.75 42.9632 666.75 36.75V11.25C666.75 5.0368 661.713 0 655.5 0Z" fill="#F05138"/>
<path d="M656.752 29.6325C656.797 29.4514 656.842 29.2704 656.888 29.0895C658.878 21.1725 654.038 11.7625 645.804 6.8313C649.423 11.7172 651.006 17.6437 649.604 22.8011C649.468 23.2536 649.332 23.706 649.151 24.1584C648.971 24.0227 648.744 23.8869 648.428 23.7512C648.428 23.7512 640.239 18.6843 631.372 9.77192C631.146 9.54572 636.122 16.8746 641.732 22.8011C639.063 21.3082 631.689 15.9246 626.984 11.672C627.572 12.6221 628.25 13.5721 628.974 14.4317C632.865 19.4081 637.977 25.5156 644.085 30.2205C639.787 32.8446 633.725 33.0707 627.708 30.2205C626.215 29.5419 624.812 28.6824 623.5 27.7324C626.034 31.8039 629.97 35.3327 634.765 37.4137C640.465 39.8567 646.166 39.7211 650.373 37.4589C650.373 37.4589 650.418 37.4589 650.418 37.4137C650.599 37.3234 650.78 37.1876 650.961 37.0971C652.997 36.0566 656.978 35.016 659.15 39.1781C659.783 40.1282 660.914 34.6993 656.752 29.6325Z" fill="white"/>
</g>
</g>
<g clip-path="url(#clip13_138_137)">
<path d="M36.75 53H11.25C5.0368 53 0 58.0368 0 64.25V89.75C0 95.9632 5.0368 101 11.25 101H36.75C42.9632 101 48 95.9632 48 89.75V64.25C48 58.0368 42.9632 53 36.75 53Z" fill="#242938"/>
<path d="M23.8648 58.4375C14.345 58.4375 14.9395 62.5659 14.9395 62.5659L14.9501 66.8428H24.0347V68.127H11.3417C11.3417 68.127 5.25 67.4361 5.25 77.0416C5.25 86.6472 10.567 86.3068 10.567 86.3068H13.7402V81.8493C13.7402 81.8493 13.5692 76.5324 18.9724 76.5324H27.9825C27.9825 76.5324 33.0448 76.6141 33.0448 71.6398V63.4149C33.0448 63.4149 33.8134 58.4375 23.8648 58.4375ZM18.8556 61.3136C19.7595 61.3136 20.49 62.0441 20.49 62.9479C20.49 63.8518 19.7595 64.5823 18.8556 64.5823C17.9517 64.5823 17.2212 63.8518 17.2212 62.9479C17.2212 62.0441 17.9517 61.3136 18.8556 61.3136Z" fill="url(#paint0_linear_138_137)"/>
<path d="M24.1352 95.7421C33.655 95.7421 33.0606 91.614 33.0606 91.614L33.0499 87.3369H23.9654V86.0527H36.6584C36.6584 86.0527 42.75 86.7436 42.75 77.138C42.75 67.5324 37.4331 67.8731 37.4331 67.8731H34.2599V72.3305C34.2599 72.3305 34.4309 77.6475 29.0277 77.6475H20.0175C20.0175 77.6475 14.9552 77.5655 14.9552 82.5399V90.7648C14.9552 90.7648 14.1866 95.7421 24.1352 95.7421ZM29.1445 92.8661C28.2405 92.8661 27.51 92.1356 27.51 91.2318C27.51 90.3279 28.2405 89.5974 29.1445 89.5974C30.0482 89.5974 30.7789 90.3279 30.7789 91.2318C30.7789 92.1356 30.0482 92.8661 29.1445 92.8661Z" fill="url(#paint1_linear_138_137)"/>
</g>
<g clip-path="url(#clip14_138_137)">
<path d="M93 53H67.5C61.2868 53 56.25 58.0368 56.25 64.25V89.75C56.25 95.9632 61.2868 101 67.5 101H93C99.2132 101 104.25 95.9632 104.25 89.75V64.25C104.25 58.0368 99.2132 53 93 53Z" fill="#2B2E3A"/>
<path d="M75.1439 66.2698C70.268 65.3818 66.4126 66.3112 64.8761 68.9726C63.7295 70.9586 64.0572 73.5916 65.6711 76.4062C65.7029 76.4647 65.7461 76.5161 65.7982 76.5577C65.8502 76.5991 65.91 76.6299 65.9741 76.6481C66.0381 76.6661 66.1052 76.6713 66.1713 76.6631C66.2373 76.655 66.3011 76.6338 66.3589 76.6006C66.4167 76.5674 66.4672 76.5232 66.5076 76.4703C66.548 76.4172 66.5774 76.3569 66.5941 76.2924C66.6109 76.2281 66.6146 76.1609 66.605 76.0949C66.5954 76.0291 66.5728 75.9657 66.5384 75.9087C65.0849 73.3734 64.802 71.1011 65.7421 69.4726C67.0186 67.2618 70.4574 66.4327 74.9647 67.2536C75.0942 67.2751 75.227 67.2449 75.3344 67.1694C75.4419 67.0938 75.5152 66.9791 75.5388 66.8499C75.5622 66.7207 75.5341 66.5875 75.4602 66.4789C75.3864 66.3704 75.2727 66.2953 75.1439 66.2698ZM68.2066 79.8273C70.1782 81.9939 72.7396 84.0262 75.6609 85.7126C82.7339 89.7963 90.2639 90.8877 93.9749 88.3574C94.0304 88.3211 94.0781 88.2738 94.1152 88.2187C94.1523 88.1637 94.178 88.1017 94.1909 88.0366C94.2039 87.9716 94.2037 87.9044 94.1904 87.8394C94.1771 87.7743 94.151 87.7126 94.1135 87.6577C94.0762 87.6028 94.0282 87.5559 93.9725 87.5199C93.9168 87.4837 93.8544 87.4591 93.7889 87.4473C93.7237 87.4355 93.6566 87.4368 93.5919 87.4513C93.527 87.4657 93.4657 87.4929 93.4115 87.5313C90.0901 89.7959 82.9374 88.7591 76.1609 84.8467C73.3271 83.2106 70.8466 81.2426 68.9463 79.1542C68.9022 79.1052 68.8488 79.0657 68.7894 79.0374C68.7299 79.0092 68.6654 78.9931 68.5997 78.9899C68.5339 78.9866 68.4682 78.9965 68.4062 79.0186C68.3442 79.0409 68.2873 79.0751 68.2386 79.1195C68.1899 79.1638 68.1504 79.2172 68.1225 79.2768C68.0945 79.3364 68.0786 79.4009 68.0756 79.4668C68.0726 79.5326 68.0827 79.5982 68.1051 79.6601C68.1276 79.7219 68.1621 79.7787 68.2066 79.8273Z" fill="#9FEAF9"/>
<path d="M92.7911 79.2191C95.9839 75.4473 97.0985 71.6538 95.5652 68.9981C94.437 67.0438 92.0518 66.012 88.8817 65.9707C88.7503 65.9709 88.6243 66.0228 88.5309 66.1152C88.4375 66.2075 88.3841 66.3329 88.3824 66.4643C88.3807 66.5957 88.4308 66.7224 88.5217 66.8172C88.6129 66.9119 88.7375 66.967 88.8688 66.9706C91.7197 67.0078 93.7747 67.8967 94.6993 69.4981C95.9728 71.7041 94.9787 75.087 92.0278 78.573C91.9845 78.623 91.9515 78.681 91.9309 78.744C91.9102 78.8068 91.9022 78.873 91.9072 78.939C91.9123 79.005 91.9305 79.0691 91.9607 79.128C91.9907 79.187 92.0323 79.2393 92.0827 79.2821C92.1332 79.3246 92.1917 79.3571 92.2547 79.377C92.3179 79.397 92.3842 79.4043 92.45 79.3983C92.5159 79.3925 92.58 79.3738 92.6385 79.3428C92.6972 79.3121 92.7489 79.2701 92.7911 79.2191ZM84.5859 66.4363C81.6992 67.0548 78.6264 68.2642 75.6755 69.9678C68.3739 74.1834 63.6109 80.3996 64.2724 84.9069C64.2812 84.9725 64.3029 85.0357 64.3363 85.0927C64.3698 85.1499 64.4142 85.1998 64.4671 85.2397C64.5199 85.2795 64.5802 85.3083 64.6443 85.3248C64.7084 85.3411 64.7751 85.3447 64.8406 85.335C64.9061 85.3254 64.969 85.3029 65.0257 85.2688C65.0824 85.2346 65.1318 85.1896 65.171 85.1362C65.2102 85.083 65.2384 85.0224 65.2539 84.9581C65.2695 84.8938 65.2722 84.827 65.2618 84.7616C64.6744 80.7596 69.1894 74.8674 76.1756 70.8339C79.0382 69.1811 82.0134 68.0101 84.7954 67.4141C84.8604 67.4013 84.9223 67.3756 84.9774 67.3386C85.0325 67.3016 85.0798 67.254 85.1162 67.1986C85.1527 67.1432 85.1779 67.081 85.19 67.0158C85.2024 66.9506 85.2015 66.8836 85.1876 66.8187C85.1737 66.7538 85.1471 66.6924 85.1092 66.6379C85.0712 66.5834 85.023 66.537 84.9669 66.5014C84.9109 66.4658 84.8484 66.4417 84.783 66.4305C84.7175 66.4194 84.6506 66.4213 84.5859 66.4363Z" fill="#9FEAF9"/>
<path d="M72.7567 88.0316C74.4262 92.6928 77.1572 95.5629 80.2281 95.5629C82.4677 95.5629 84.5398 94.0361 86.1557 91.3482C86.1907 91.292 86.214 91.2292 86.2247 91.1637C86.2352 91.0983 86.2326 91.0316 86.217 90.9671C86.2014 90.9026 86.1733 90.842 86.1339 90.7886C86.0947 90.7351 86.0454 90.6899 85.9886 90.6558C85.9318 90.6217 85.8686 90.5992 85.8032 90.5896C85.7376 90.5801 85.6706 90.5836 85.6065 90.6001C85.5424 90.6166 85.482 90.6457 85.4291 90.6856C85.3762 90.7256 85.332 90.7758 85.2986 90.833C83.8464 93.2486 82.0627 94.5627 80.2281 94.5627C77.6771 94.5627 75.2413 92.003 73.6984 87.6946C73.6772 87.6316 73.6437 87.5733 73.5998 87.5234C73.5559 87.4734 73.5024 87.4327 73.4426 87.4036C73.3827 87.3746 73.3177 87.3577 73.2513 87.3541C73.1848 87.3506 73.1183 87.3603 73.0557 87.3826C72.9931 87.4051 72.9355 87.4398 72.8865 87.4846C72.8374 87.5296 72.7978 87.584 72.77 87.6444C72.7422 87.7047 72.7267 87.7702 72.7244 87.8366C72.7222 87.9031 72.733 87.9695 72.7567 88.0316ZM88.0046 87.1197C88.869 84.3582 89.3331 81.1726 89.3331 77.8529C89.3331 69.5694 86.4337 62.4286 82.3042 60.5951C82.1837 60.5445 82.0479 60.5433 81.9264 60.5916C81.8049 60.6399 81.7071 60.7339 81.654 60.8534C81.6009 60.9729 81.5968 61.1085 81.6426 61.2311C81.6883 61.3536 81.7802 61.4534 81.8985 61.5089C85.5816 63.1445 88.3329 69.9213 88.3329 77.8529C88.3329 81.0736 87.8835 84.1586 87.0504 86.8211C87.0298 86.8841 87.0217 86.9504 87.027 87.0166C87.0322 87.0826 87.0504 87.1469 87.0808 87.206C87.111 87.2649 87.1528 87.3172 87.2034 87.3599C87.2542 87.4025 87.3129 87.4347 87.3761 87.4544C87.4393 87.4743 87.5059 87.4812 87.5719 87.4751C87.6379 87.4691 87.702 87.4497 87.7605 87.4186C87.819 87.3875 87.8707 87.3451 87.9126 87.2937C87.9546 87.2424 87.9857 87.1833 88.0046 87.1197ZM97.4216 86.63C97.4216 85.3083 96.3502 84.2369 95.0286 84.2369C93.7069 84.2369 92.6355 85.3083 92.6355 86.63C92.6355 87.9517 93.7069 89.0231 95.0286 89.0231C96.3502 89.0231 97.4216 87.9517 97.4216 86.63ZM96.4217 86.63C96.4217 86.813 96.3857 86.9941 96.3156 87.1631C96.2456 87.3322 96.1431 87.4857 96.0137 87.6151C95.8843 87.7445 95.7307 87.8471 95.5616 87.9172C95.3927 87.9871 95.2116 88.0231 95.0286 88.0231C94.8456 88.0231 94.6644 87.9871 94.4955 87.9172C94.3264 87.8471 94.1728 87.7445 94.0434 87.6151C93.9141 87.4857 93.8115 87.3322 93.7416 87.1631C93.6714 86.9941 93.6354 86.813 93.6354 86.63C93.6354 86.2606 93.7822 85.9062 94.0434 85.6449C94.3048 85.3837 94.659 85.2369 95.0286 85.2369C95.3981 85.2369 95.7523 85.3837 96.0137 85.6449C96.2749 85.9062 96.4217 86.2606 96.4217 86.63ZM65.3931 89.0231C66.7149 89.0231 67.7863 87.9517 67.7863 86.63C67.7863 85.3083 66.7147 84.2369 65.3931 84.2369C64.0716 84.2369 63 85.3083 63 86.63C63 87.9517 64.0716 89.0231 65.3931 89.0231ZM65.3931 88.0231C65.0236 88.0231 64.6692 87.8763 64.408 87.6151C64.1467 87.3539 63.9999 86.9996 63.9999 86.63C63.9999 86.2606 64.1467 85.9062 64.408 85.6449C64.6692 85.3837 65.0236 85.2369 65.3931 85.2369C65.7625 85.2369 66.1169 85.3837 66.3781 85.6449C66.6394 85.9062 66.7862 86.2606 66.7862 86.63C66.7862 86.9996 66.6394 87.3539 66.3781 87.6151C66.1169 87.8763 65.7625 88.0231 65.3931 88.0231Z" fill="#9FEAF9"/>
<path d="M80.228 63.0361C81.5497 63.0361 82.6211 61.9648 82.6211 60.6431C82.6211 59.3214 81.5497 58.25 80.228 58.25C78.9063 58.25 77.835 59.3214 77.835 60.6431C77.835 61.9648 78.9063 63.0361 80.228 63.0361ZM80.228 62.0362C79.8585 62.0362 79.5043 61.8894 79.2429 61.6281C78.9817 61.3669 78.8349 61.0126 78.8349 60.6431C78.8349 60.2736 78.9817 59.9192 79.2429 59.658C79.5043 59.3967 79.8585 59.2499 80.228 59.2499C80.5976 59.2499 80.9518 59.3967 81.2131 59.658C81.4743 59.9192 81.6211 60.2736 81.6211 60.6431C81.6211 61.0126 81.4743 61.3669 81.2131 61.6281C80.9518 61.8894 80.5976 62.0362 80.228 62.0362ZM80.5935 79.5453C79.6588 79.7472 78.738 79.1532 78.5356 78.2186C78.4387 77.7697 78.524 77.3007 78.7728 76.9149C79.0216 76.529 79.4135 76.2577 79.8624 76.1606C80.7971 75.9586 81.7179 76.5526 81.9204 77.4873C82.1223 78.422 81.5283 79.343 80.5935 79.5453Z" fill="#9FEAF9"/>
</g>
<g clip-path="url(#clip15_138_137)">
<path d="M149.25 53H123.75C117.537 53 112.5 58.0368 112.5 64.25V89.75C112.5 95.9632 117.537 101 123.75 101H149.25C155.463 101 160.5 95.9632 160.5 89.75V64.25C160.5 58.0368 155.463 53 149.25 53Z" fill="#242938"/>
<path d="M155.079 63.8003L137.486 95.2604C137.122 95.9101 136.189 95.9139 135.82 95.2676L117.878 63.8033C117.476 63.0989 118.079 62.2457 118.877 62.3884L136.489 65.5365C136.601 65.5566 136.717 65.5564 136.829 65.5359L154.073 62.3929C154.868 62.2479 155.474 63.0945 155.079 63.8003Z" fill="url(#paint2_linear_138_137)"/>
<path d="M144.879 58.2592L131.859 60.8104C131.645 60.8523 131.487 61.0337 131.474 61.2513L130.673 74.7778C130.654 75.0963 130.947 75.3436 131.258 75.2718L134.883 74.4354C135.222 74.3572 135.528 74.6559 135.459 74.9969L134.382 80.2706C134.309 80.6255 134.642 80.9289 134.989 80.8237L137.228 80.1434C137.575 80.0381 137.908 80.3424 137.835 80.6977L136.123 88.9813C136.016 89.4995 136.706 89.7821 136.993 89.3377L137.185 89.0411L147.794 67.8686C147.972 67.5141 147.666 67.1099 147.276 67.185L143.545 67.9051C143.194 67.9727 142.896 67.6462 142.995 67.3031L145.43 58.8609C145.529 58.5173 145.23 58.1905 144.879 58.2592Z" fill="url(#paint3_linear_138_137)"/>
</g>
<g clip-path="url(#clip16_138_137)">
<path d="M205.5 53H180C173.787 53 168.75 58.0368 168.75 64.25V89.75C168.75 95.9632 173.787 101 180 101H205.5C211.713 101 216.75 95.9632 216.75 89.75V64.25C216.75 58.0368 211.713 53 205.5 53Z" fill="#242938"/>
<path d="M175.072 71.789C175.072 71.789 174.184 71.1491 175.249 70.2946L177.731 68.0754C177.731 68.0754 178.441 67.3282 179.192 67.9792L202.095 85.319V93.6339C202.095 93.6339 202.084 94.9396 200.408 94.7952L175.072 71.789Z" fill="#2489CA"/>
<path d="M180.975 77.1485L175.072 82.5153C175.072 82.5153 174.465 82.9666 175.072 83.7731L177.812 86.2659C177.812 86.2659 178.463 86.9651 179.425 86.1697L185.683 81.4242L180.975 77.1485Z" fill="#1070B3"/>
<path d="M191.339 77.1929L202.165 68.9261L202.095 60.6556C202.095 60.6556 201.633 58.8506 200.09 59.7901L185.684 72.9022L191.339 77.1929Z" fill="#0877B9"/>
<path d="M200.408 94.8065C201.037 95.45 201.799 95.2393 201.799 95.2393L210.236 91.0818C211.316 90.3457 211.164 89.4322 211.164 89.4322V64.6059C211.164 63.5148 210.047 63.1375 210.047 63.1375L202.735 59.6126C201.137 58.625 200.09 59.7901 200.09 59.7901C200.09 59.7901 201.437 58.821 202.095 60.6556V93.4822C202.095 93.708 202.047 93.9298 201.951 94.1296C201.759 94.518 201.341 94.8804 200.338 94.7287L200.408 94.8065Z" fill="#3C99D4"/>
</g>
<g clip-path="url(#clip17_138_137)">
<path d="M261.75 53H236.25C230.037 53 225 58.0368 225 64.25V89.75C225 95.9632 230.037 101 236.25 101H261.75C267.963 101 273 95.9632 273 89.75V64.25C273 58.0368 267.963 53 261.75 53Z" fill="#2396ED"/>
<path d="M251.473 75.8981H255.357V72.3836H251.473V75.8981ZM246.848 75.8981H250.733V72.3836H246.848V75.8981ZM242.317 75.8981H246.201V72.3836H242.317V75.8981ZM237.785 75.8981H241.577V72.3836H237.785V75.8981ZM233.161 75.8981H237.045V72.3836H233.161V75.8981ZM237.785 71.6437H241.577V68.1293H237.785V71.6437ZM242.317 71.6437H246.201V68.1293H242.317V71.6437ZM246.848 71.6437H250.733V68.1293H246.848V71.6437ZM246.848 67.3894H250.733V63.875H246.848V67.3894ZM267.75 74.3259C267.75 74.3259 266.085 72.7535 262.663 73.3085C262.293 70.6264 259.426 69.0542 259.426 69.0542C259.426 69.0542 256.744 72.2911 258.686 75.8981C258.132 76.1756 257.207 76.5455 255.819 76.5455H230.386C229.924 78.3027 229.924 89.9557 242.687 89.9557C251.842 89.9557 258.686 85.7015 261.923 77.9326C266.733 78.3027 267.75 74.3259 267.75 74.3259Z" fill="white"/>
</g>
<g clip-path="url(#clip18_138_137)">
<path d="M318 53H292.5C286.287 53 281.25 58.0368 281.25 64.25V89.75C281.25 95.9632 286.287 101 292.5 101H318C324.213 101 329.25 95.9632 329.25 89.75V64.25C329.25 58.0368 324.213 53 318 53Z" fill="#242938"/>
<path d="M305.25 58.625C294.896 58.625 286.5 67.0195 286.5 77.3752C286.5 85.6595 291.872 92.6878 299.323 95.1671C300.26 95.3407 300.604 94.7604 300.604 94.2652C300.604 93.818 300.586 92.3411 300.578 90.7743C295.362 91.9085 294.261 88.562 294.261 88.562C293.408 86.3947 292.179 85.8185 292.179 85.8185C290.478 84.6547 292.307 84.6787 292.307 84.6787C294.19 84.8109 295.182 86.6109 295.182 86.6109C296.854 89.4774 299.568 88.6486 300.638 88.1696C300.806 86.9576 301.292 86.1305 301.828 85.6623C297.664 85.1881 293.286 83.5803 293.286 76.3959C293.286 74.3488 294.018 72.6761 295.218 71.363C295.023 70.8908 294.381 68.9837 295.399 66.401C295.399 66.401 296.974 65.8971 300.557 68.323C302.053 67.9075 303.657 67.6992 305.25 67.6921C306.844 67.6992 308.449 67.9075 309.947 68.323C313.526 65.8971 315.098 66.401 315.098 66.401C316.119 68.9837 315.477 70.8908 315.282 71.363C316.484 72.6761 317.212 74.3488 317.212 76.3959C317.212 83.5976 312.826 85.1833 308.65 85.6473C309.323 86.2293 309.922 87.3703 309.922 89.1196C309.922 91.6284 309.9 93.6476 309.9 94.2652C309.9 94.7641 310.238 95.3488 311.188 95.1646C318.634 92.6825 324 85.6567 324 77.3752C324 67.0195 315.605 58.625 305.25 58.625ZM293.523 85.3349C293.481 85.4281 293.335 85.4561 293.201 85.3921C293.065 85.331 292.989 85.2039 293.033 85.1105C293.073 85.0145 293.22 84.9879 293.356 85.0522C293.492 85.1133 293.57 85.2416 293.523 85.3349ZM294.445 86.1579C294.355 86.2409 294.181 86.2023 294.062 86.0713C293.939 85.9406 293.916 85.7658 294.007 85.6816C294.099 85.5988 294.269 85.6376 294.392 85.7683C294.514 85.9006 294.538 86.0741 294.445 86.1579ZM295.078 87.2109C294.963 87.2908 294.775 87.2159 294.659 87.0491C294.544 86.8824 294.544 86.6825 294.661 86.6023C294.778 86.5222 294.963 86.5942 295.08 86.7598C295.195 86.9293 295.195 87.1293 295.078 87.2109ZM296.148 88.4304C296.045 88.5436 295.826 88.5133 295.666 88.3586C295.502 88.2074 295.456 87.9929 295.559 87.8795C295.663 87.7659 295.883 87.7979 296.045 87.9513C296.208 88.1021 296.257 88.3183 296.148 88.4304ZM297.531 88.8419C297.485 88.9889 297.274 89.0557 297.062 88.9933C296.85 88.9289 296.711 88.757 296.754 88.6085C296.798 88.4608 297.01 88.3912 297.224 88.4579C297.436 88.5219 297.575 88.6927 297.531 88.8419ZM299.105 89.0167C299.11 89.1712 298.93 89.2994 298.707 89.3023C298.483 89.3073 298.301 89.1821 298.299 89.03C298.299 88.8738 298.475 88.7469 298.699 88.7431C298.922 88.7388 299.105 88.8629 299.105 89.0167ZM300.651 88.9574C300.677 89.1082 300.523 89.2633 300.301 89.3045C300.083 89.3443 299.882 89.2511 299.854 89.1014C299.827 88.9468 299.985 88.7919 300.202 88.7518C300.424 88.7133 300.623 88.8041 300.651 88.9574Z" fill="white"/>
</g>
<g clip-path="url(#clip19_138_137)">
<path d="M374.25 53H348.75C342.537 53 337.5 58.0368 337.5 64.25V89.75C337.5 95.9632 342.537 101 348.75 101H374.25C380.463 101 385.5 95.9632 385.5 89.75V64.25C385.5 58.0368 380.463 53 374.25 53Z" fill="#242938"/>
<mask id="mask3_138_137" style="mask-type:luminance" maskUnits="userSpaceOnUse" x="342" y="58" width="39" height="38">
<path d="M380.25 58.25H342.75V95.75H380.25V58.25Z" fill="white"/>
</mask>
<g mask="url(#mask3_138_137)">
<path d="M352.312 85.2031H377.129V78.3359L372.415 75.6324L371.602 75.2808L352.312 75.4132V85.2031Z" fill="white"/>
<path d="M368.545 84.2913C368.776 83.5004 368.688 82.775 368.304 82.2359C367.952 81.7413 367.358 81.4554 366.645 81.4226L353.115 81.2469C353.027 81.2469 352.951 81.2022 352.907 81.1366C352.862 81.071 352.852 80.9844 352.874 80.8953C352.918 80.7629 353.05 80.6645 353.193 80.6538L366.843 80.4781C368.46 80.4007 370.218 79.0929 370.832 77.4897L371.612 75.4567C371.647 75.3731 371.655 75.2812 371.636 75.1929C370.757 71.2144 367.206 68.2473 362.964 68.2473C359.05 68.2473 355.733 70.775 354.545 74.2824C353.775 73.7105 352.787 73.4036 351.742 73.502C349.862 73.6895 348.343 75.1942 348.17 77.0739C348.124 77.5413 348.158 78.0131 348.268 78.4694C346.79 78.5096 345.385 79.1257 344.354 80.1866C343.323 81.2474 342.748 82.6692 342.75 84.1484C342.75 84.4226 342.773 84.6991 342.805 84.9723C342.829 85.1047 342.938 85.2031 343.069 85.2031H368.039C368.111 85.2018 368.18 85.1776 368.238 85.1343C368.295 85.0908 368.337 85.0304 368.358 84.9616L368.545 84.2913Z" fill="#F38020"/>
<path d="M372.853 75.5973L372.478 75.6089C372.39 75.6089 372.314 75.6746 372.279 75.7614L371.752 77.5964C371.521 78.3875 371.609 79.1129 371.993 79.652C372.344 80.1464 372.939 80.4324 373.652 80.4652L376.532 80.6411C376.619 80.6411 376.696 80.6855 376.74 80.7511C376.785 80.8168 376.795 80.9152 376.773 80.9926C376.729 81.125 376.597 81.2234 376.454 81.2339L373.454 81.4098C371.828 81.4871 370.079 82.7949 369.465 84.398L369.245 84.9583C369.2 85.0683 369.278 85.1786 369.397 85.1786H379.706C379.766 85.1793 379.824 85.1604 379.872 85.1246C379.92 85.0888 379.954 85.0379 379.97 84.9804C380.153 84.3305 380.247 83.6587 380.25 82.9835C380.244 81.0247 379.463 79.1476 378.077 77.7635C376.69 76.3794 374.812 75.6009 372.853 75.5984" fill="#FAAE40"/>
</g>
</g>
<g clip-path="url(#clip20_138_137)">
<path d="M430.5 53H405C398.787 53 393.75 58.0368 393.75 64.25V89.75C393.75 95.9632 398.787 101 405 101H430.5C436.713 101 441.75 95.9632 441.75 89.75V64.25C441.75 58.0368 436.713 53 430.5 53Z" fill="#242938"/>
<mask id="mask4_138_137" style="mask-type:luminance" maskUnits="userSpaceOnUse" x="400" y="60" width="35" height="34">
<path d="M434.625 60.125H400.875V93.875H434.625V60.125Z" fill="white"/>
</mask>
<g mask="url(#mask4_138_137)">
<path fill-rule="evenodd" clip-rule="evenodd" d="M431.963 86.4144C430.127 86.3634 428.703 86.5514 427.51 87.0536C427.166 87.1916 426.614 87.1916 426.569 87.6241C426.753 87.8056 426.775 88.1026 426.936 88.3542C427.211 88.8108 427.694 89.4258 428.129 89.7449L429.598 90.7946C430.493 91.3415 431.503 91.6612 432.375 92.2087C432.88 92.5282 433.385 92.9388 433.89 93.2814C434.148 93.4638 434.303 93.761 434.625 93.8744V93.8054C434.464 93.6009 434.418 93.3044 434.258 93.0753L433.569 92.4142C432.904 91.5247 432.077 90.7484 431.182 90.1104C430.447 89.6084 428.841 88.9242 428.542 88.0807L428.497 88.0295C429.001 87.9785 429.598 87.8009 430.081 87.6641C430.862 87.4595 431.573 87.5045 432.375 87.2994L433.478 86.9799V86.7753C433.065 86.3649 432.766 85.8172 432.331 85.4298C431.16 84.4261 429.874 83.4449 428.542 82.6239C427.831 82.1679 426.913 81.8707 426.155 81.4837C425.879 81.3466 425.421 81.2782 425.26 81.0502C424.846 80.5492 424.617 79.8869 424.319 79.2935L422.437 75.3245C422.024 74.4348 421.771 73.5451 421.267 72.7241C418.902 68.8461 416.331 66.4968 412.383 64.1925C411.534 63.7134 410.524 63.5074 409.45 63.2568L407.729 63.1648C407.361 63.0053 406.994 62.5717 406.673 62.3662C405.364 61.5451 401.99 59.7659 401.025 62.1106C400.406 63.5933 401.944 65.0529 402.466 65.8061C402.857 66.3306 403.361 66.9237 403.637 67.5168C403.792 67.9043 403.843 68.3154 404.004 68.7259C404.371 69.7295 404.716 70.8477 405.198 71.7834C405.455 72.2624 405.725 72.7649 406.047 73.1981C406.23 73.4536 406.552 73.5631 406.62 73.9736C406.299 74.4301 406.277 75.1137 406.093 75.6849C405.266 78.2626 405.588 81.4561 406.758 83.354C407.126 83.924 407.993 85.1791 409.169 84.6997C410.202 84.2891 409.971 82.9889 410.27 81.8482C410.339 81.5748 410.293 81.3922 410.43 81.2092V81.2604L411.372 83.1536C412.083 84.2712 413.323 85.4349 414.356 86.2109C414.906 86.6216 415.342 87.3292 416.031 87.5797V87.5107H415.986C415.848 87.3061 415.641 87.2141 415.457 87.0545C415.044 86.6441 414.585 86.1419 414.264 85.6859C413.3 84.4087 412.451 82.994 411.693 81.5343C411.326 80.8272 411.004 80.0516 410.707 79.3445C410.568 79.0706 410.568 78.6594 410.339 78.5234C409.994 79.0244 409.49 79.4591 409.236 80.0746C408.8 81.0552 408.755 82.2644 408.594 83.5192C408.502 83.5421 408.543 83.5192 408.502 83.5702C407.768 83.3883 407.515 82.6346 407.24 81.9965C406.551 80.3769 406.436 77.7764 407.033 75.9057C407.193 75.4267 407.883 73.9211 407.608 73.4649C407.469 73.0314 407.011 72.7809 406.758 72.4383C406.459 72.0048 406.139 71.4577 405.932 70.9786C405.381 69.7004 405.106 68.2867 404.509 67.0091C404.233 66.416 403.751 65.7999 403.361 65.2529C402.924 64.6368 402.443 64.2032 402.099 63.4736C401.984 63.218 401.823 62.812 402.007 62.538C402.052 62.3555 402.145 62.2823 402.328 62.2415C402.626 61.9858 403.476 62.31 403.774 62.446C404.623 62.7885 405.335 63.1076 406.046 63.5861C406.368 63.8141 406.712 64.2477 407.125 64.3622H407.608C408.343 64.5217 409.168 64.4133 409.856 64.6178C411.073 65.0064 412.174 65.576 413.162 66.1926C416.169 68.0858 418.648 70.7777 420.323 73.9946C420.599 74.5192 420.713 74.9982 420.967 75.5457C421.449 76.664 422.046 77.8042 422.527 78.8997C423.01 79.9719 423.468 81.0676 424.157 81.9571C424.501 82.4362 425.878 82.6867 426.498 82.9377C426.957 83.1423 427.668 83.3264 428.082 83.5769C428.862 84.056 429.643 84.6035 430.377 85.1281C430.743 85.4011 431.892 85.9717 431.96 86.4267L431.963 86.4144ZM408.555 66.5914C408.238 66.5886 407.921 66.6269 407.614 66.7054V66.7565H407.659C407.843 67.1216 408.165 67.3726 408.394 67.6921L408.922 68.7873L408.968 68.7362C409.289 68.5081 409.45 68.1431 409.45 67.596C409.312 67.4365 409.29 67.2765 409.175 67.1169C409.037 66.8889 408.739 66.7744 408.555 66.5924V66.5914Z" fill="white"/>
</g>
</g>
<defs>
<linearGradient id="paint0_linear_138_137" x1="8.85375" y1="61.793" x2="27.4374" y2="80.1912" gradientUnits="userSpaceOnUse">
<stop stop-color="#387EB8"/>
<stop offset="1" stop-color="#366994"/>
</linearGradient>
<linearGradient id="paint1_linear_138_137" x1="20.2605" y1="73.6072" x2="40.2173" y2="92.4729" gradientUnits="userSpaceOnUse">
<stop stop-color="#FFE052"/>
<stop offset="1" stop-color="#FFC331"/>
</linearGradient>
<linearGradient id="paint2_linear_138_137" x1="117.44" y1="61.2641" x2="139.336" y2="91.0012" gradientUnits="userSpaceOnUse">
<stop stop-color="#41D1FF"/>
<stop offset="1" stop-color="#BD34FE"/>
</linearGradient>
<linearGradient id="paint3_linear_138_137" x1="135.478" y1="58.9519" x2="139.439" y2="86.1238" gradientUnits="userSpaceOnUse">
<stop stop-color="#FFEA83"/>
<stop offset="0.0833333" stop-color="#FFDD35"/>
<stop offset="1" stop-color="#FFA800"/>
</linearGradient>
<clipPath id="clip0_138_137">
<rect width="666.75" height="48" fill="white"/>
</clipPath>
<clipPath id="clip1_138_137">
<rect width="48" height="48" fill="white"/>
</clipPath>
<clipPath id="clip2_138_137">
<rect width="48" height="48" fill="white" transform="translate(56.25)"/>
</clipPath>
<clipPath id="clip3_138_137">
<rect width="48" height="48" fill="white" transform="translate(112.5)"/>
</clipPath>
<clipPath id="clip4_138_137">
<rect width="48" height="48" fill="white" transform="translate(168.75)"/>
</clipPath>
<clipPath id="clip5_138_137">
<rect width="48" height="48" fill="white" transform="translate(225)"/>
</clipPath>
<clipPath id="clip6_138_137">
<rect width="48" height="48" fill="white" transform="translate(281.25)"/>
</clipPath>
<clipPath id="clip7_138_137">
<rect width="48" height="48" fill="white" transform="translate(337.5)"/>
</clipPath>
<clipPath id="clip8_138_137">
<rect width="48" height="48" fill="white" transform="translate(393.75)"/>
</clipPath>
<clipPath id="clip9_138_137">
<rect width="48" height="48" fill="white" transform="translate(450)"/>
</clipPath>
<clipPath id="clip10_138_137">
<rect width="48" height="48" fill="white" transform="translate(506.25)"/>
</clipPath>
<clipPath id="clip11_138_137">
<rect width="48" height="48" fill="white" transform="translate(562.5)"/>
</clipPath>
<clipPath id="clip12_138_137">
<rect width="48" height="48" fill="white" transform="translate(618.75)"/>
</clipPath>
<clipPath id="clip13_138_137">
<rect width="48" height="48" fill="white" transform="translate(0 53)"/>
</clipPath>
<clipPath id="clip14_138_137">
<rect width="48" height="48" fill="white" transform="translate(56.25 53)"/>
</clipPath>
<clipPath id="clip15_138_137">
<rect width="48" height="48" fill="white" transform="translate(112.5 53)"/>
</clipPath>
<clipPath id="clip16_138_137">
<rect width="48" height="48" fill="white" transform="translate(168.75 53)"/>
</clipPath>
<clipPath id="clip17_138_137">
<rect width="48" height="48" fill="white" transform="translate(225 53)"/>
</clipPath>
<clipPath id="clip18_138_137">
<rect width="48" height="48" fill="white" transform="translate(281.25 53)"/>
</clipPath>
<clipPath id="clip19_138_137">
<rect width="48" height="48" fill="white" transform="translate(337.5 53)"/>
</clipPath>
<clipPath id="clip20_138_137">
<rect width="48" height="48" fill="white" transform="translate(393.75 53)"/>
</clipPath>
</defs>
</svg>
